<svg width="116" height="121" viewBox="0 0 116 121" fill="none" xmlns="http://www.w3.org/2000/svg">
<circle cx="58" cy="58" r="58" fill="#B0BFD6" fill-opacity="0.2"/>
<circle cx="58" cy="58" r="51" fill="#B0BFD6" fill-opacity="0.5"/>
<circle cx="58" cy="58" r="37" fill="#B0BFD6"/>
<path d="M62.2539 63.9043H55.2227L54.2266 34.3438H63.25L62.2539 63.9043ZM58.7383 68.5332C60.1641 68.5332 61.3066 68.9531 62.166 69.793C63.0449 70.6328 63.4844 71.707 63.4844 73.0156C63.4844 74.3047 63.0449 75.3691 62.166 76.209C61.3066 77.0488 60.1641 77.4688 58.7383 77.4688C57.332 77.4688 56.1895 77.0488 55.3105 76.209C54.4512 75.3691 54.0215 74.3047 54.0215 73.0156C54.0215 71.7266 54.4512 70.6621 55.3105 69.8223C56.1895 68.9629 57.332 68.5332 58.7383 68.5332Z" fill="white"/>
</svg>
